<svg xmlns="http://www.w3.org/2000/svg" viewBox="0 0 345 116" role="img" aria-label="Leo Dispatch Inc">
  <defs>
    <style>
    text { font-family: 'Archivo', 'Arial Black', sans-serif; }
  </style>
    <linearGradient id="leo-mono-white-word" x1="0" y1="0" x2="0" y2="1">
      <stop offset="0%" stop-color="#ffffff"/>
      <stop offset="60%" stop-color="#ffffff"/>
      <stop offset="100%" stop-color="#ffffff"/>
    </linearGradient>
    <linearGradient id="leo-mono-white-door" x1="0" y1="0" x2="0" y2="1">
      <stop offset="0%" stop-color="#ffd400"/>
      <stop offset="100%" stop-color="#d99500"/>
    </linearGradient>
    <linearGradient id="leo-mono-white-top" x1="0" y1="0" x2="0" y2="1">
      <stop offset="0%" stop-color="rgba(255,212,0,0.18)"/>
      <stop offset="100%" stop-color="rgba(255,212,0,0.04)"/>
    </linearGradient>
    <linearGradient id="leo-mono-white-side" x1="0" y1="0" x2="1" y2="0">
      <stop offset="0%" stop-color="rgba(255,212,0,0.10)"/>
      <stop offset="100%" stop-color="rgba(255,212,0,0.02)"/>
    </linearGradient>
  </defs>
  <rect x="0" y="0" width="345" height="116" fill="#000000"/>
  <svg x="0" y="9" width="104" height="95" viewBox="0 0 110 100" overflow="visible">
    
    <g fill="none" stroke="#ffffff" stroke-width="2.4" stroke-linejoin="round" stroke-linecap="round">
      <line x1="38" y1="49" x2="55" y2="7" stroke-width="1.7"/>
      <line x1="95" y1="33" x2="55" y2="7" stroke-width="1.7"/>
      <line x1="72" y1="24" x2="55" y2="7" stroke-width="1.7"/>
      <line x1="15" y1="40" x2="55" y2="7" stroke-width="1.7"/>
      <circle cx="55" cy="4" r="3" stroke-width="2"/>
      <path d="M38,49 L95,33 L72,24 L15,40 Z" fill="url(#leo-mono-white-top)"/>
      <path d="M38,49 L95,33 L95,69 L38,85 Z" fill="url(#leo-mono-white-side)"/>
      <line x1="43.7" y1="47.4" x2="43.7" y2="83.4" stroke-width="1.4"/>
      <line x1="49.4" y1="45.8" x2="49.4" y2="81.8" stroke-width="1.4"/>
      <line x1="55.099999999999994" y1="44.2" x2="55.099999999999994" y2="80.2" stroke-width="1.4"/>
      <line x1="60.8" y1="42.6" x2="60.8" y2="78.6" stroke-width="1.4"/>
      <line x1="66.5" y1="41" x2="66.5" y2="77" stroke-width="1.4"/>
      <line x1="72.19999999999999" y1="39.4" x2="72.19999999999999" y2="75.4" stroke-width="1.4"/>
      <line x1="77.9" y1="37.8" x2="77.9" y2="73.8" stroke-width="1.4"/>
      <line x1="83.6" y1="36.2" x2="83.6" y2="72.2" stroke-width="1.4"/>
      <line x1="89.30000000000001" y1="34.6" x2="89.30000000000001" y2="70.6" stroke-width="1.4"/>
      <path d="M38,49 L15,40 L15,76 L38,85 Z" fill="none"/>
      <g stroke="#ffffff" stroke-width="2">
        <line x1="26.5" y1="44.5" x2="26.5" y2="80.5"/>
        <line x1="20.5" y1="63" x2="24" y2="63" stroke-width="2.4"/>
        <line x1="29" y1="63" x2="32.5" y2="63" stroke-width="2.4"/>
      </g>
    </g>
  </svg>
  <text x="116" y="70" font-size="70" font-weight="900" letter-spacing="-2" fill="#ffffff">LEO</text>
  <text x="119" y="101" font-size="23" font-weight="700" textLength="215" lengthAdjust="spacing" fill="#ffffff">DISPATCH INC</text>
</svg>